<svg xmlns="http://www.w3.org/2000/svg" xmlns:xlink="http://www.w3.org/1999/xlink" width="70" zoomAndPan="magnify" viewBox="0 0 52.5 52.499999" height="70" preserveAspectRatio="xMidYMid meet" version="1.0"><defs><clipPath id="ee6510b2c7"><path d="M 10.050781 17.199219 L 43.242188 17.199219 L 43.242188 36.304688 L 10.050781 36.304688 Z M 10.050781 17.199219 " clip-rule="nonzero"/></clipPath><clipPath id="62625e030a"><path d="M 0 19.523438 L 10 19.523438 L 10 31 L 0 31 Z M 0 19.523438 " clip-rule="nonzero"/></clipPath><clipPath id="9fa3ecde8c"><path d="M 4 19.523438 L 46 19.523438 L 46 50 L 4 50 Z M 4 19.523438 " clip-rule="nonzero"/></clipPath><clipPath id="a86fc9ea22"><path d="M 42 22 L 52 22 L 52 33.0625 L 42 33.0625 Z M 42 22 " clip-rule="nonzero"/></clipPath><clipPath id="3f7f20203a"><path d="M 5.109375 2 L 48 2 L 48 33 L 5.109375 33 Z M 5.109375 2 " clip-rule="nonzero"/></clipPath></defs><g clip-path="url(#ee6510b2c7)"><path stroke-linecap="butt" transform="matrix(0.171086, 0, 0, 0.171956, 9.45312, 9.565488)" fill="none" stroke-linejoin="miter" d="M 83.382587 108.704211 L 117.539297 108.704211 C 131.832145 108.704211 143.544974 120.403254 143.544974 134.714704 L 143.544974 151.774862 L 57.37691 151.774862 L 57.37691 134.714704 C 57.37691 120.403254 69.089739 108.704211 83.382587 108.704211 Z M 83.382587 108.704211 " stroke="#000000" stroke-width="7" stroke-opacity="1" stroke-miterlimit="22.926001"/><path stroke-linecap="butt" transform="matrix(0.171086, 0, 0, 0.171956, 9.45312, 9.565488)" fill="none" stroke-linejoin="miter" d="M 98.451724 98.32273 C 112.310763 98.32273 123.589783 87.032586 123.589783 73.198184 C 123.589783 59.363782 112.310763 48.073638 98.451724 48.073638 C 84.615516 48.073638 73.313664 59.363782 73.313664 73.198184 C 73.313664 87.032586 84.615516 98.32273 98.451724 98.32273 Z M 98.451724 98.32273 " stroke="#000000" stroke-width="7" stroke-opacity="1" stroke-miterlimit="22.926001"/><path stroke-linecap="butt" transform="matrix(0.171086, 0, 0, 0.171956, 9.45312, 9.565488)" fill="none" stroke-linejoin="miter" d="M 138.704584 108.272596 C 141.627083 106.546135 145.029055 105.546605 148.659347 105.546605 L 174.39104 105.546605 C 185.190588 105.546605 194.003749 114.360641 194.003749 125.151021 L 194.003749 138.00861 L 151.239366 138.00861 " stroke="#000000" stroke-width="7" stroke-opacity="1" stroke-miterlimit="22.926001"/><path stroke-linecap="butt" transform="matrix(0.171086, 0, 0, 0.171956, 9.45312, 9.565488)" fill="none" stroke-linejoin="miter" d="M 160.029696 97.732099 C 170.441099 97.732099 178.957445 89.213379 178.957445 78.786465 C 178.957445 68.359551 170.441099 59.84083 160.029696 59.84083 C 149.59546 59.84083 141.079115 68.359551 141.079115 78.786465 C 141.079115 89.213379 149.572628 97.732099 160.029696 97.732099 Z M 160.029696 97.732099 " stroke="#000000" stroke-width="7" stroke-opacity="1" stroke-miterlimit="22.926001"/><path stroke-linecap="butt" transform="matrix(0.171086, 0, 0, 0.171956, 9.45312, 9.565488)" fill="none" stroke-linejoin="miter" d="M 62.285796 109.272126 C 59.363296 107.545665 55.961325 106.546135 52.331033 106.546135 L 26.59934 106.546135 C 15.822624 106.546135 7.009463 115.360171 7.009463 126.150551 L 7.009463 139.008139 L 49.751014 139.008139 " stroke="#000000" stroke-width="7" stroke-opacity="1" stroke-miterlimit="22.926001"/><path stroke-linecap="butt" transform="matrix(0.171086, 0, 0, 0.171956, 9.45312, 9.565488)" fill="none" stroke-linejoin="miter" d="M 40.983516 98.731629 C 51.417752 98.731629 59.911265 90.212908 59.911265 79.785995 C 59.911265 69.359081 51.417752 60.84036 40.983516 60.84036 C 30.549281 60.84036 22.032935 69.359081 22.032935 79.785995 C 22.032935 90.212908 30.549281 98.731629 40.983516 98.731629 Z M 40.983516 98.731629 " stroke="#000000" stroke-width="7" stroke-opacity="1" stroke-miterlimit="22.926001"/></g><g clip-path="url(#62625e030a)"><path fill="#040606" d="M 8.675781 30.257812 C 8.359375 30.257812 8.0625 30.054688 7.960938 29.738281 L 5.46875 22.148438 L 1.53125 29.003906 C 1.324219 29.359375 0.863281 29.488281 0.503906 29.28125 C 0.140625 29.074219 0.015625 28.617188 0.222656 28.257812 L 5.003906 19.9375 C 5.148438 19.679688 5.425781 19.523438 5.734375 19.5625 C 6.027344 19.59375 6.277344 19.792969 6.371094 20.074219 L 9.390625 29.273438 C 9.519531 29.667969 9.304688 30.089844 8.910156 30.21875 C 8.832031 30.246094 8.753906 30.257812 8.675781 30.257812 " fill-opacity="1" fill-rule="nonzero"/></g><g clip-path="url(#9fa3ecde8c)"><path fill="#040606" d="M 24.96875 49.371094 C 22.21875 49.371094 19.464844 48.832031 16.84375 47.695312 C 6.875 43.375 1.800781 31.59375 5.042969 20.285156 C 5.15625 19.886719 5.578125 19.652344 5.972656 19.769531 C 6.375 19.882812 6.605469 20.296875 6.492188 20.695312 C 3.457031 31.285156 8.164062 42.300781 17.445312 46.320312 C 27.300781 50.589844 39.214844 45.765625 44.570312 35.332031 C 44.761719 34.964844 45.214844 34.820312 45.585938 35.007812 C 45.957031 35.195312 46.101562 35.648438 45.914062 36.015625 C 41.613281 44.390625 33.320312 49.371094 24.96875 49.371094 " fill-opacity="1" fill-rule="nonzero"/></g><g clip-path="url(#a86fc9ea22)"><path fill="#040606" d="M 43.179688 22.128906 C 43.503906 22.128906 43.804688 22.332031 43.910156 22.65625 L 46.441406 30.390625 L 50.445312 23.40625 C 50.65625 23.042969 51.125 22.914062 51.492188 23.125 C 51.859375 23.332031 51.988281 23.800781 51.777344 24.164062 L 46.917969 32.640625 C 46.765625 32.90625 46.488281 33.0625 46.171875 33.023438 C 45.871094 32.992188 45.617188 32.789062 45.523438 32.5 L 42.453125 23.128906 C 42.320312 22.730469 42.539062 22.296875 42.941406 22.167969 C 43.023438 22.140625 43.101562 22.128906 43.179688 22.128906 " fill-opacity="1" fill-rule="nonzero"/></g><g clip-path="url(#3f7f20203a)"><path fill="#040606" d="M 26.617188 2.65625 C 29.410156 2.65625 32.210938 3.207031 34.875 4.363281 C 45.015625 8.765625 50.171875 20.769531 46.875 32.289062 C 46.757812 32.695312 46.332031 32.929688 45.929688 32.8125 C 45.519531 32.695312 45.285156 32.273438 45.402344 31.867188 C 48.488281 21.082031 43.703125 9.863281 34.265625 5.765625 C 24.246094 1.417969 12.128906 6.332031 6.683594 16.957031 C 6.488281 17.332031 6.03125 17.480469 5.652344 17.289062 C 5.277344 17.097656 5.125 16.636719 5.320312 16.261719 C 9.691406 7.730469 18.125 2.65625 26.617188 2.65625 " fill-opacity="1" fill-rule="nonzero"/></g></svg>