<svg xmlns="http://www.w3.org/2000/svg" xmlns:xlink="http://www.w3.org/1999/xlink" width="50" zoomAndPan="magnify" viewBox="0 0 37.5 37.499999" height="50" preserveAspectRatio="xMidYMid meet" version="1.0"><defs><g/><clipPath id="6d2114a535"><path d="M 0.414062 0.414062 L 16.160156 0.414062 L 16.160156 15.253906 L 0.414062 15.253906 Z M 0.414062 0.414062 " clip-rule="nonzero"/></clipPath><clipPath id="f253970aee"><path d="M 0.457031 7.703125 C 0.378906 8.4375 0.277344 10.40625 1.476562 12.296875 C 1.726562 12.691406 2.332031 13.621094 3.519531 14.339844 C 3.683594 14.4375 4.882812 15.148438 6.433594 15.214844 C 9.0625 15.328125 10.96875 13.589844 11.828125 12.808594 C 13.371094 11.40625 14.070312 9.90625 14.664062 8.621094 C 15.738281 6.308594 15.972656 4.347656 16.035156 3.714844 C 16.167969 2.363281 16.089844 1.226562 15.984375 0.414062 C 15.953125 1.214844 15.847656 2.3125 15.550781 3.585938 C 15.390625 4.261719 14.875 6.273438 13.476562 8.601562 C 12.628906 10.019531 11.984375 11.089844 10.679688 12.109375 C 9.949219 12.683594 8.621094 13.691406 6.679688 13.839844 C 6.203125 13.878906 5.113281 13.949219 3.882812 13.414062 C 2.109375 12.644531 1.292969 11.164062 1.027344 10.617188 C 0.449219 9.414062 0.421875 8.300781 0.457031 7.703125 " clip-rule="nonzero"/></clipPath><clipPath id="0324819fdd"><path d="M 3.957031 15.171875 L 4.949219 15.171875 L 4.949219 15.914062 L 3.957031 15.914062 Z M 3.957031 15.171875 " clip-rule="nonzero"/></clipPath><clipPath id="5aa6d574a7"><path d="M 4.371094 15.253906 C 4.425781 15.324219 4.519531 15.421875 4.65625 15.503906 C 4.753906 15.566406 4.847656 15.597656 4.917969 15.621094 C 4.550781 15.785156 4.0625 15.980469 3.980469 15.863281 C 3.949219 15.816406 3.957031 15.683594 4.371094 15.253906 " clip-rule="nonzero"/></clipPath><clipPath id="68e09ea55e"><path d="M 5.441406 13.027344 L 13.441406 13.027344 L 13.441406 20.863281 L 5.441406 20.863281 Z M 5.441406 13.027344 " clip-rule="nonzero"/></clipPath><clipPath id="dbdbe24af8"><path d="M 5.480469 15.28125 L 7.148438 16.421875 C 7.109375 16.433594 7.050781 16.457031 7.003906 16.507812 C 6.828125 16.703125 6.996094 17.117188 7.0625 17.277344 C 7.175781 17.558594 7.292969 17.679688 7.433594 17.890625 C 7.828125 18.484375 7.742188 18.753906 8.21875 19.503906 C 8.332031 19.679688 8.449219 19.847656 8.660156 19.917969 C 8.898438 19.996094 9.125 19.90625 9.203125 19.875 C 9.984375 19.5625 10.191406 18.234375 10.214844 18.078125 C 10.324219 17.3125 10.144531 16.664062 9.972656 16.238281 L 11.070312 14 C 11.554688 13.875 12.097656 13.695312 12.667969 13.441406 L 13.394531 13.085938 C 13.164062 13.476562 12.933594 13.867188 12.703125 14.253906 C 12.691406 14.160156 12.660156 14 12.539062 13.914062 C 12.410156 13.820312 12.242188 13.863281 12.011719 13.914062 C 11.808594 13.957031 11.507812 14.019531 11.121094 14.074219 L 10.785156 16.867188 C 10.632812 18.097656 10.476562 19.320312 10.3125 20.53125 C 10.277344 20.582031 10.214844 20.660156 10.113281 20.71875 C 9.839844 20.878906 9.632812 20.703125 9.085938 20.71875 C 8.972656 20.722656 8.933594 20.730469 8.347656 20.761719 C 8.140625 20.773438 8.019531 20.78125 7.960938 20.703125 C 7.878906 20.601562 7.980469 20.433594 8.015625 20.261719 C 8.105469 19.855469 7.8125 19.488281 7.660156 19.261719 C 7.308594 18.75 6.539062 17.3125 5.476562 15.28125 " clip-rule="nonzero"/></clipPath><clipPath id="0276a31ef7"><path d="M 5.113281 1.648438 L 15.667969 1.648438 L 15.667969 13.359375 L 5.113281 13.359375 Z M 5.113281 1.648438 " clip-rule="nonzero"/></clipPath><clipPath id="732d351762"><path d="M 5.195312 13.300781 C 5.277344 13.34375 6.15625 11.671875 7.808594 9.25 C 8.992188 7.515625 9.507812 6.945312 9.683594 6.757812 C 10.746094 5.609375 11.917969 4.378906 13.554688 4.308594 C 14.160156 4.28125 14.660156 4.421875 14.980469 4.539062 L 15.589844 2.25 C 14.503906 2.066406 13.421875 1.886719 12.335938 1.707031 C 12.160156 1.679688 11.859375 1.65625 11.507812 1.742188 C 11.425781 1.765625 11.140625 1.84375 10.851562 2.039062 C 10.316406 2.402344 10.085938 2.949219 10.015625 3.113281 C 8.914062 5.671875 7.507812 8.09375 6.363281 10.636719 C 5.644531 12.234375 5.128906 13.265625 5.195312 13.300781 " clip-rule="nonzero"/></clipPath><clipPath id="fe83a42fd0"><path d="M 16.078125 2.554688 L 31.085938 2.554688 L 31.085938 14 L 16.078125 14 Z M 16.078125 2.554688 " clip-rule="nonzero"/></clipPath><clipPath id="dce84a879c"><path d="M 16.53125 2.5625 C 16.492188 2.996094 16.433594 3.46875 16.339844 3.96875 L 16.148438 4.835938 C 17.195312 5.085938 18.605469 5.488281 20.210938 6.167969 C 22.894531 7.300781 24.714844 8.605469 25.992188 9.535156 C 27.402344 10.554688 29.175781 12.007812 31.011719 13.984375 C 29.046875 11.125 25.71875 7.214844 20.496094 4.359375 C 19.121094 3.609375 17.785156 3.023438 16.53125 2.5625 " clip-rule="nonzero"/></clipPath><clipPath id="39c8e7399c"><path d="M 30.261719 2.390625 L 33.890625 2.390625 L 33.890625 18.304688 L 30.261719 18.304688 Z M 30.261719 2.390625 " clip-rule="nonzero"/></clipPath><clipPath id="8d1cd9c50f"><path d="M 32.296875 18.292969 C 32.25 18.191406 32.183594 18.039062 32.136719 17.847656 C 32.007812 17.324219 32.097656 16.886719 32.15625 16.636719 C 32.367188 15.675781 32.621094 15.011719 32.839844 14.269531 C 32.964844 13.839844 33.039062 13.527344 33.183594 12.898438 C 33.457031 11.710938 33.78125 10.285156 33.808594 8.535156 C 33.828125 7.503906 33.832031 6.847656 33.554688 5.996094 C 33.25 5.070312 32.785156 4.429688 32.523438 4.113281 C 31.734375 3.144531 30.820312 2.65625 30.300781 2.429688 C 30.285156 2.523438 30.210938 3.09375 30.613281 3.597656 C 31.023438 4.113281 31.605469 4.164062 31.699219 4.167969 C 31.574219 4.085938 31.402344 3.949219 31.242188 3.742188 C 31.058594 3.5 30.972656 3.265625 30.929688 3.113281 C 31.148438 3.203125 31.460938 3.359375 31.789062 3.625 C 32.277344 4.023438 32.527344 4.449219 32.742188 4.824219 C 32.835938 4.996094 33.148438 5.558594 33.367188 6.421875 C 33.433594 6.675781 33.597656 7.382812 33.597656 8.476562 C 33.59375 9.855469 33.328125 10.90625 33.054688 11.957031 C 32.847656 12.746094 32.667969 13.441406 32.3125 14.355469 C 32.109375 14.875 31.882812 15.386719 31.710938 16.195312 C 31.519531 17.117188 31.582031 17.574219 31.828125 17.90625 C 31.976562 18.109375 32.164062 18.226562 32.296875 18.292969 " clip-rule="nonzero"/></clipPath><clipPath id="f7945a6b4c"><path d="M 4.863281 21.109375 L 7.832031 21.109375 L 7.832031 25.398438 L 4.863281 25.398438 Z M 4.863281 21.109375 " clip-rule="nonzero"/></clipPath><clipPath id="59c537c254"><path d="M 7.769531 21.117188 C 7.570312 21.542969 7.347656 22.136719 7.234375 22.871094 C 7.066406 23.945312 7.207031 24.839844 7.34375 25.394531 L 4.914062 25.394531 C 5.335938 24.683594 5.800781 23.941406 6.308594 23.183594 C 6.796875 22.449219 7.289062 21.761719 7.773438 21.117188 " clip-rule="nonzero"/></clipPath><clipPath id="c04992f0c4"><path d="M 7.421875 20.863281 L 12.535156 20.863281 L 12.535156 25.398438 L 7.421875 25.398438 Z M 7.421875 20.863281 " clip-rule="nonzero"/></clipPath><clipPath id="aba95b547e"><path d="M 7.476562 24.339844 C 7.636719 23.992188 7.929688 23.46875 8.460938 22.984375 C 8.832031 22.648438 9.171875 22.472656 9.84375 22.128906 C 10.882812 21.597656 11.402344 21.335938 11.570312 21.46875 C 11.78125 21.640625 11.652344 22.429688 9.875 25.394531 L 12.511719 25.394531 C 12.382812 25.242188 12.191406 24.984375 12.070312 24.625 C 11.957031 24.28125 11.953125 23.992188 11.957031 23.855469 C 11.972656 22.335938 12.417969 21.347656 12.054688 21.015625 C 11.589844 20.589844 10.078125 21.507812 9.546875 21.828125 C 9.199219 22.039062 8.800781 22.285156 8.390625 22.742188 C 7.851562 23.339844 7.597656 23.957031 7.476562 24.339844 " clip-rule="nonzero"/></clipPath><clipPath id="9d4b0013f6"><path d="M 20.695312 19.046875 L 25 19.046875 L 25 25.398438 L 20.695312 25.398438 Z M 20.695312 19.046875 " clip-rule="nonzero"/></clipPath><clipPath id="8c249a9295"><path d="M 20.75 25.394531 C 21.378906 24.238281 22.316406 22.628906 23.59375 20.773438 C 23.59375 20.773438 24.816406 19.003906 24.992188 19.117188 C 25.171875 19.234375 22.6875 22.203125 23.585938 24.585938 C 23.734375 24.976562 23.933594 25.253906 24.046875 25.394531 Z M 20.75 25.394531 " clip-rule="nonzero"/></clipPath><clipPath id="76d48e1d93"><path d="M 12.367188 17.726562 L 35.375 17.726562 L 35.375 25.398438 L 12.367188 25.398438 Z M 12.367188 17.726562 " clip-rule="nonzero"/></clipPath><clipPath id="b3ee31c306"><path d="M 31.691406 25.394531 L 32.210938 23.113281 C 31.988281 22.496094 31.523438 21.457031 30.550781 20.523438 C 28.921875 18.957031 26.945312 18.714844 26.046875 18.601562 C 24.855469 18.457031 24.011719 18.585938 22.328125 18.847656 C 21.414062 18.992188 19.886719 19.238281 18.003906 19.957031 C 16.695312 20.453125 15.574219 20.882812 14.367188 21.886719 C 13.414062 22.675781 12.785156 23.507812 12.398438 24.113281 C 12.542969 23.792969 12.792969 23.308594 13.1875 22.777344 C 14.238281 21.375 15.546875 20.695312 16.824219 20.050781 C 18.214844 19.347656 19.359375 19.007812 19.636719 18.925781 C 22.484375 18.09375 27.746094 16.554688 31.335938 19.253906 C 33.121094 20.59375 34.238281 22.746094 34.492188 23.265625 C 34.902344 24.097656 35.148438 24.84375 35.300781 25.394531 Z M 31.691406 25.394531 " clip-rule="nonzero"/></clipPath></defs><g clip-path="url(#6d2114a535)"><g clip-path="url(#f253970aee)"><path fill="#000000" d="M 0 0 L 35.703125 0 L 35.703125 25.808594 L 0 25.808594 Z M 0 0 " fill-opacity="1" fill-rule="nonzero"/></g></g><g clip-path="url(#0324819fdd)"><g clip-path="url(#5aa6d574a7)"><path fill="#c31e3b" d="M 0 0 L 35.703125 0 L 35.703125 25.808594 L 0 25.808594 Z M 0 0 " fill-opacity="1" fill-rule="nonzero"/></g></g><g clip-path="url(#68e09ea55e)"><g clip-path="url(#dbdbe24af8)"><path fill="#c31e3b" d="M 0 0 L 35.703125 0 L 35.703125 25.808594 L 0 25.808594 Z M 0 0 " fill-opacity="1" fill-rule="nonzero"/></g></g><g clip-path="url(#0276a31ef7)"><g clip-path="url(#732d351762)"><path fill="#c31e3b" d="M 0 0 L 35.703125 0 L 35.703125 25.808594 L 0 25.808594 Z M 0 0 " fill-opacity="1" fill-rule="nonzero"/></g></g><g clip-path="url(#fe83a42fd0)"><g clip-path="url(#dce84a879c)"><path fill="#c31e3b" d="M 0 0 L 35.703125 0 L 35.703125 25.808594 L 0 25.808594 Z M 0 0 " fill-opacity="1" fill-rule="nonzero"/></g></g><g clip-path="url(#39c8e7399c)"><g clip-path="url(#8d1cd9c50f)"><path fill="#c31e3b" d="M 0 0 L 35.703125 0 L 35.703125 25.808594 L 0 25.808594 Z M 0 0 " fill-opacity="1" fill-rule="nonzero"/></g></g><g clip-path="url(#f7945a6b4c)"><g clip-path="url(#59c537c254)"><path fill="#c31e3b" d="M 0 0 L 35.703125 0 L 35.703125 25.808594 L 0 25.808594 Z M 0 0 " fill-opacity="1" fill-rule="nonzero"/></g></g><g clip-path="url(#c04992f0c4)"><g clip-path="url(#aba95b547e)"><path fill="#c31e3b" d="M 0 0 L 35.703125 0 L 35.703125 25.808594 L 0 25.808594 Z M 0 0 " fill-opacity="1" fill-rule="nonzero"/></g></g><g clip-path="url(#9d4b0013f6)"><g clip-path="url(#8c249a9295)"><path fill="#c31e3b" d="M 0 0 L 35.703125 0 L 35.703125 25.808594 L 0 25.808594 Z M 0 0 " fill-opacity="1" fill-rule="nonzero"/></g></g><g clip-path="url(#76d48e1d93)"><g clip-path="url(#b3ee31c306)"><path fill="#c31e3b" d="M 0 0 L 35.703125 0 L 35.703125 25.808594 L 0 25.808594 Z M 0 0 " fill-opacity="1" fill-rule="nonzero"/></g></g><g fill="#000000" fill-opacity="1"><g transform="translate(2.880021, 30.928475)"><g><path d="M 2.605469 -4.003906 L 1.792969 -4.328125 C 1.742188 -4.347656 1.703125 -4.324219 1.707031 -4.28125 L 1.691406 -0.917969 L 0.679688 0.191406 C 0.644531 0.222656 0.660156 0.261719 0.703125 0.28125 L 1.433594 0.574219 C 1.460938 0.582031 1.484375 0.578125 1.496094 0.5625 L 4.847656 -3.027344 C 4.878906 -3.058594 4.867188 -3.101562 4.824219 -3.117188 L 4.066406 -3.417969 C 4.039062 -3.429688 4.015625 -3.425781 4.003906 -3.410156 L 2.558594 -1.824219 L 2.648438 -3.949219 C 2.648438 -3.96875 2.628906 -3.992188 2.605469 -4.003906 Z M 2.605469 -4.003906 "/></g></g></g><g fill="#000000" fill-opacity="1"><g transform="translate(6.006469, 32.200826)"><g><path d="M 2.878906 -1.554688 L 5.308594 -3.238281 C 5.359375 -3.265625 5.339844 -3.320312 5.28125 -3.335938 L 4.371094 -3.601562 C 4.355469 -3.605469 4.320312 -3.601562 4.3125 -3.597656 L 2.011719 -1.976562 L 2.621094 -4.058594 C 2.628906 -4.082031 2.609375 -4.117188 2.570312 -4.128906 L 1.839844 -4.339844 C 1.800781 -4.351562 1.765625 -4.335938 1.761719 -4.308594 L 0.476562 0.0820312 C 0.46875 0.109375 0.488281 0.140625 0.527344 0.152344 L 1.257812 0.367188 C 1.296875 0.378906 1.332031 0.359375 1.335938 0.335938 L 1.6875 -0.859375 C 1.84375 -0.945312 1.996094 -1.0625 2.140625 -1.152344 L 2.980469 0.847656 C 2.984375 0.855469 3.011719 0.878906 3.023438 0.882812 L 3.980469 1.164062 C 4.039062 1.179688 4.085938 1.144531 4.058594 1.09375 Z M 2.878906 -1.554688 "/></g></g></g><g fill="#000000" fill-opacity="1"><g transform="translate(10.143156, 33.398089)"><g><path d="M 2.875 -4.230469 L 1.382812 -4.507812 C 1.347656 -4.511719 1.316406 -4.492188 1.3125 -4.464844 L 0.480469 0.046875 C 0.476562 0.0742188 0.496094 0.105469 0.53125 0.113281 L 1.28125 0.25 C 1.320312 0.257812 1.34375 0.234375 1.347656 0.207031 L 1.683594 -1.601562 L 2.367188 -1.476562 C 2.480469 -1.453125 3.929688 -1.199219 4.179688 -2.554688 C 4.429688 -3.917969 3.058594 -4.199219 2.875 -4.230469 Z M 2.523438 -2.324219 L 1.839844 -2.449219 L 2.035156 -3.507812 L 2.71875 -3.382812 C 2.824219 -3.363281 3.398438 -3.230469 3.304688 -2.71875 C 3.210938 -2.210938 2.640625 -2.300781 2.523438 -2.324219 Z M 2.523438 -2.324219 "/></g></g></g><g fill="#000000" fill-opacity="1"><g transform="translate(13.973526, 34.173957)"><g><path d="M 5.535156 0.261719 L 5.792969 -4.304688 C 5.796875 -4.332031 5.769531 -4.359375 5.730469 -4.363281 L 4.960938 -4.40625 C 4.941406 -4.40625 4.90625 -4.390625 4.902344 -4.375 L 3.113281 -1.027344 L 1.648438 -4.5625 C 1.640625 -4.578125 1.609375 -4.597656 1.589844 -4.601562 L 0.820312 -4.644531 C 0.78125 -4.644531 0.753906 -4.621094 0.75 -4.59375 L 0.492188 -0.0273438 C 0.488281 0 0.515625 0.03125 0.554688 0.03125 L 1.308594 0.0742188 C 1.347656 0.078125 1.378906 0.0507812 1.378906 0.0234375 L 1.53125 -2.660156 L 2.652344 -0.0625 C 2.65625 -0.0507812 2.683594 -0.0273438 2.703125 -0.0273438 L 3.417969 0.015625 C 3.4375 0.015625 3.472656 -0.00390625 3.480469 -0.015625 L 4.796875 -2.417969 L 4.644531 0.210938 C 4.644531 0.238281 4.667969 0.265625 4.707031 0.269531 L 5.464844 0.3125 C 5.503906 0.316406 5.53125 0.289062 5.535156 0.261719 Z M 5.535156 0.261719 "/></g></g></g><g fill="#000000" fill-opacity="1"><g transform="translate(20.079925, 34.42281)"><g><path d="M 1.65625 -4.890625 C 1.570312 -4.453125 1.40625 -3.921875 1.15625 -3.296875 L 0.4375 -3.265625 C 0.550781 -3.929688 0.632812 -4.484375 0.6875 -4.921875 L 1.59375 -4.953125 Z M 1.46875 -6.078125 Z M 1.65625 -4.25 Z M 1.65625 -4.25 "/></g></g></g><g fill="#000000" fill-opacity="1"><g transform="translate(22.267167, 34.355155)"><g><path d="M 1.164062 -0.175781 L 1.785156 -2.128906 L 2.285156 -2.191406 L 2.511719 -0.363281 C 2.511719 -0.335938 2.542969 -0.3125 2.582031 -0.320312 L 3.332031 -0.410156 C 3.371094 -0.417969 3.394531 -0.445312 3.394531 -0.472656 L 2.832031 -5.015625 C 2.828125 -5.039062 2.800781 -5.0625 2.757812 -5.058594 L 1.265625 -4.875 C 0.945312 -4.835938 -0.304688 -4.640625 -0.132812 -3.273438 C -0.046875 -2.5625 0.449219 -2.273438 0.871094 -2.15625 L 0.210938 -0.101562 C 0.195312 -0.0585938 0.226562 -0.0273438 0.277344 -0.0351562 L 1.109375 -0.136719 C 1.128906 -0.140625 1.160156 -0.164062 1.164062 -0.175781 Z M 2.046875 -4.121094 L 2.191406 -2.945312 L 1.515625 -2.863281 C 1.28125 -2.835938 0.8125 -2.871094 0.75 -3.382812 C 0.6875 -3.894531 1.210938 -4.019531 1.367188 -4.039062 Z M 2.046875 -4.121094 "/></g></g></g><g fill="#000000" fill-opacity="1"><g transform="translate(26.201531, 33.888525)"><g><path d="M 2.417969 -1.382812 C 1.640625 -1.203125 0.882812 -1.621094 0.667969 -2.539062 C 0.46875 -3.402344 0.839844 -4.195312 1.710938 -4.398438 C 2.097656 -4.488281 2.484375 -4.410156 2.804688 -4.214844 C 2.835938 -4.203125 2.875 -4.210938 2.898438 -4.238281 L 3.292969 -4.871094 C 3.3125 -4.898438 3.304688 -4.9375 3.273438 -4.949219 C 2.773438 -5.265625 2.148438 -5.382812 1.515625 -5.234375 C 0.179688 -4.921875 -0.527344 -3.695312 -0.210938 -2.335938 C 0.121094 -0.914062 1.363281 -0.25 2.613281 -0.542969 C 3.246094 -0.691406 3.753906 -1.078125 4.0625 -1.574219 C 4.085938 -1.601562 4.074219 -1.640625 4.042969 -1.652344 L 3.40625 -2.054688 C 3.378906 -2.066406 3.339844 -2.058594 3.316406 -2.035156 C 3.117188 -1.710938 2.800781 -1.472656 2.417969 -1.382812 Z M 2.417969 -1.382812 "/></g></g></g><g fill="#000000" fill-opacity="1"><g transform="translate(30.749489, 32.84476)"><g><path d="M 0.816406 -5.367188 C -0.644531 -4.824219 -0.941406 -3.433594 -0.527344 -2.308594 C -0.109375 -1.1875 1.023438 -0.316406 2.488281 -0.855469 C 3.921875 -1.386719 4.230469 -2.792969 3.816406 -3.917969 C 3.398438 -5.039062 2.253906 -5.898438 0.816406 -5.367188 Z M 2.195312 -1.648438 C 1.308594 -1.320312 0.601562 -1.882812 0.332031 -2.613281 C 0.0585938 -3.347656 0.226562 -4.242188 1.109375 -4.570312 C 1.984375 -4.894531 2.699219 -4.324219 2.972656 -3.589844 C 3.242188 -2.863281 3.066406 -1.96875 2.195312 -1.648438 Z M 2.195312 -1.648438 "/></g></g></g></svg>